<?xml version="1.0" standalone="no"?>
<!DOCTYPE svg PUBLIC "-//W3C//DTD SVG 20010904//EN"
 "http://www.w3.org/TR/2001/REC-SVG-20010904/DTD/svg10.dtd">
<svg version="1.0" xmlns="http://www.w3.org/2000/svg"
 width="1173.000000pt" height="1280.000000pt" viewBox="0 0 1173.000000 1280.000000"
 preserveAspectRatio="xMidYMid meet">
<g transform="translate(0.000000,1280.000000) scale(0.100000,-0.100000)"
fill="#000000" stroke="none">
<path d="M10967 12686 c-88 -33 -152 -83 -291 -231 -296 -315 -378 -387 -521
-458 -123 -61 -195 -79 -347 -84 -268 -10 -483 53 -853 251 -338 180 -398 206
-484 206 -62 0 -105 -28 -134 -87 -43 -85 -52 -145 -51 -333 2 -310 52 -548
229 -1075 203 -604 239 -756 239 -985 0 -194 -42 -316 -144 -420 -116 -118
-218 -154 -603 -215 -712 -114 -1008 -181 -1425 -326 -1100 -383 -1918 -1131
-2467 -2254 -246 -503 -372 -875 -610 -1800 -175 -678 -241 -880 -343 -1053
-93 -156 -458 -539 -692 -727 -394 -316 -667 -468 -1350 -750 -431 -178 -568
-249 -702 -363 -216 -184 -318 -440 -318 -797 0 -133 15 -198 74 -320 57 -118
141 -228 268 -350 252 -242 576 -415 777 -415 113 0 157 45 149 154 -6 78 -38
158 -155 376 -150 281 -188 400 -180 555 8 157 61 268 192 399 104 105 230
188 440 291 365 179 1063 417 1405 479 216 40 430 38 591 -3 41 -10 154 -49
252 -85 l179 -66 2033 0 c1814 0 2034 2 2045 15 16 20 7 232 -13 315 -57 232
-207 295 -757 316 -188 7 -210 13 -210 60 0 36 63 186 160 383 212 429 455
796 670 1012 86 86 120 113 185 145 l79 39 122 -2 c215 -4 349 -48 448 -148
122 -124 156 -240 185 -630 7 -84 19 -162 36 -220 124 -431 544 -973 970
-1250 293 -191 506 -207 617 -45 60 88 90 173 96 268 4 80 3 86 -32 157 -31
62 -64 103 -203 247 -286 297 -374 413 -482 638 -101 211 -159 419 -198 707
-24 181 -24 680 1 923 47 477 141 824 311 1160 128 251 258 423 570 755 293
312 375 416 460 584 56 113 90 209 117 334 19 90 22 132 22 357 1 301 -12 406
-81 670 -77 296 -92 370 -105 511 -19 219 6 377 84 536 39 77 87 142 208 277
211 237 233 325 166 661 -89 437 -121 639 -166 1050 -18 154 -38 312 -45 350
-28 150 -81 244 -161 291 -40 24 -61 29 -133 31 -56 2 -99 -2 -124 -11z"/>
</g>
</svg>
